<svg xmlns="http://www.w3.org/2000/svg" width="640" height="360" viewBox="0 0 640 360">
  <defs>
    <linearGradient id="metrics-bg" x1="0" y1="0" x2="1" y2="1">
      <stop offset="0%" stop-color="#0b1022"/>
      <stop offset="55%" stop-color="#111a33"/>
      <stop offset="100%" stop-color="#0f172a"/>
    </linearGradient>
    <linearGradient id="metrics-ring" x1="0" y1="0" x2="1" y2="0">
      <stop offset="0%" stop-color="#6f7dff"/>
      <stop offset="100%" stop-color="#4dd0e1"/>
    </linearGradient>
  </defs>
  <rect width="640" height="360" rx="28" fill="url(#metrics-bg)"/>

  <g transform="translate(70 70)">
    <circle cx="120" cy="120" r="90" fill="none" stroke="#23304b" stroke-width="2"/>
    <circle cx="120" cy="120" r="60" fill="none" stroke="url(#metrics-ring)" stroke-width="6"/>
    <path d="M120 30 A90 90 0 0 1 190 120" fill="none" stroke="#ff8f00" stroke-width="6" stroke-linecap="round"/>
    <path d="M120 120 L190 120" stroke="#6f7dff" stroke-width="3" stroke-linecap="round"/>
    <circle cx="190" cy="120" r="6" fill="#6f7dff"/>
  </g>

  <g transform="translate(260 80)">
    <rect x="0" y="0" width="280" height="200" rx="22" fill="#111827" stroke="#1f2a44"/>
    <rect x="20" y="26" width="160" height="12" rx="6" fill="#23304b"/>
    <rect x="20" y="50" width="200" height="10" rx="5" fill="#2a3754"/>
    <rect x="20" y="74" width="180" height="10" rx="5" fill="#2a3754"/>
    <rect x="20" y="120" width="36" height="50" rx="8" fill="#4dd0e1"/>
    <rect x="70" y="100" width="36" height="70" rx="8" fill="#6f7dff"/>
    <rect x="120" y="80" width="36" height="90" rx="8" fill="#ff8f00"/>
    <rect x="170" y="110" width="36" height="60" rx="8" fill="#4dd0e1"/>
    <path d="M20 180 C90 150, 150 160, 220 130" fill="none" stroke="#6f7dff" stroke-width="3" stroke-linecap="round"/>
  </g>
</svg>
