<svg xmlns="http://www.w3.org/2000/svg" width="640" height="360" viewBox="0 0 640 360">
  <defs>
    <linearGradient id="train-bg" x1="0" y1="0" x2="1" y2="1">
      <stop offset="0%" stop-color="#0b1120"/>
      <stop offset="50%" stop-color="#0f172a"/>
      <stop offset="100%" stop-color="#0b1b24"/>
    </linearGradient>
    <radialGradient id="train-core" cx="50%" cy="50%" r="60%">
      <stop offset="0%" stop-color="#5ef2c2"/>
      <stop offset="55%" stop-color="#00a870"/>
      <stop offset="100%" stop-color="#0b1b24" stop-opacity="0"/>
    </radialGradient>
    <linearGradient id="train-glow" x1="0" y1="0" x2="1" y2="0">
      <stop offset="0%" stop-color="#1b4dff"/>
      <stop offset="100%" stop-color="#00a870"/>
    </linearGradient>
  </defs>
  <rect width="640" height="360" rx="28" fill="url(#train-bg)"/>

  <g transform="translate(60 60)">
    <rect x="0" y="0" width="280" height="220" rx="20" fill="#111827" stroke="#1f2a44"/>
    <rect x="20" y="24" width="140" height="12" rx="6" fill="#23304b"/>
    <rect x="20" y="48" width="200" height="8" rx="4" fill="#2a3754"/>
    <rect x="20" y="68" width="180" height="8" rx="4" fill="#2a3754"/>
    <rect x="20" y="88" width="160" height="8" rx="4" fill="#2a3754"/>
    <rect x="20" y="112" width="240" height="60" rx="12" fill="#0d1a31"/>
    <circle cx="210" cy="142" r="20" fill="url(#train-glow)"/>
    <path d="M40 190 C90 160, 140 160, 190 190" fill="none" stroke="#2a3754" stroke-width="2"/>
    <path d="M60 200 C100 180, 140 180, 180 200" fill="none" stroke="#2a3754" stroke-width="2"/>
  </g>

  <g transform="translate(380 70)">
    <circle cx="90" cy="90" r="80" fill="url(#train-core)" opacity="0.9"/>
    <circle cx="90" cy="90" r="54" fill="#0f172a" stroke="#1f2a44"/>
    <circle cx="90" cy="90" r="20" fill="#5ef2c2"/>
    <path d="M90 10 L90 40" stroke="#1b4dff" stroke-width="4" stroke-linecap="round"/>
    <path d="M90 140 L90 170" stroke="#1b4dff" stroke-width="4" stroke-linecap="round"/>
    <path d="M10 90 L40 90" stroke="#1b4dff" stroke-width="4" stroke-linecap="round"/>
    <path d="M140 90 L170 90" stroke="#1b4dff" stroke-width="4" stroke-linecap="round"/>
  </g>

  <g transform="translate(380 230)">
    <rect x="0" y="0" width="200" height="70" rx="16" fill="#111827" stroke="#1f2a44"/>
    <rect x="20" y="18" width="110" height="10" rx="5" fill="#23304b"/>
    <rect x="20" y="36" width="140" height="10" rx="5" fill="#23304b"/>
    <rect x="20" y="54" width="70" height="8" rx="4" fill="#2a3754"/>
  </g>
</svg>
