<svg xmlns="http://www.w3.org/2000/svg" width="640" height="360" viewBox="0 0 640 360">
  <defs>
    <linearGradient id="steam-bg" x1="0" y1="0" x2="1" y2="1">
      <stop offset="0%" stop-color="#0a1122"/>
      <stop offset="50%" stop-color="#0f172a"/>
      <stop offset="100%" stop-color="#0a1424"/>
    </linearGradient>
    <linearGradient id="steam-cyan" x1="0" y1="0" x2="1" y2="0">
      <stop offset="0%" stop-color="#00c2ff"/>
      <stop offset="100%" stop-color="#1b4dff"/>
    </linearGradient>
  </defs>
  <rect width="640" height="360" rx="28" fill="url(#steam-bg)"/>

  <g transform="translate(70 80)">
    <circle cx="110" cy="100" r="80" fill="none" stroke="#23304b" stroke-width="3"/>
    <circle cx="110" cy="100" r="52" fill="none" stroke="url(#steam-cyan)" stroke-width="6"/>
    <circle cx="110" cy="100" r="24" fill="#0f172a" stroke="#1f2a44" stroke-width="3"/>
    <circle cx="110" cy="100" r="10" fill="url(#steam-cyan)"/>
    <path d="M160 50 C210 40, 230 70, 210 100" fill="none" stroke="#1b4dff" stroke-width="3" stroke-linecap="round"/>
    <circle cx="210" cy="100" r="10" fill="#1b4dff"/>
  </g>

  <g transform="translate(320 70)">
    <rect x="0" y="0" width="250" height="200" rx="24" fill="#111827" stroke="#1f2a44"/>
    <rect x="24" y="26" width="140" height="12" rx="6" fill="#23304b"/>
    <rect x="24" y="52" width="180" height="10" rx="5" fill="#2a3754"/>
    <rect x="24" y="76" width="160" height="10" rx="5" fill="#2a3754"/>
    <rect x="24" y="112" width="200" height="40" rx="10" fill="#0d1a31"/>
    <circle cx="210" cy="132" r="16" fill="url(#steam-cyan)"/>
  </g>

  <g transform="translate(360 280)">
    <rect x="0" y="0" width="200" height="40" rx="12" fill="#0f172a" stroke="#1f2a44"/>
    <rect x="16" y="14" width="90" height="10" rx="5" fill="#23304b"/>
    <rect x="120" y="12" width="60" height="14" rx="7" fill="url(#steam-cyan)"/>
  </g>
</svg>
