<svg xmlns="http://www.w3.org/2000/svg" width="640" height="360" viewBox="0 0 640 360">
  <defs>
    <linearGradient id="overview-bg" x1="0" y1="0" x2="1" y2="1">
      <stop offset="0%" stop-color="#0b1020"/>
      <stop offset="55%" stop-color="#131b36"/>
      <stop offset="100%" stop-color="#111827"/>
    </linearGradient>
    <radialGradient id="overview-glow" cx="70%" cy="20%" r="60%">
      <stop offset="0%" stop-color="#3558ff" stop-opacity="0.85"/>
      <stop offset="60%" stop-color="#1b4dff" stop-opacity="0.2"/>
      <stop offset="100%" stop-color="#111827" stop-opacity="0"/>
    </radialGradient>
    <linearGradient id="overview-amber" x1="0" y1="0" x2="1" y2="0">
      <stop offset="0%" stop-color="#ffb253"/>
      <stop offset="100%" stop-color="#ff8f00"/>
    </linearGradient>
  </defs>
  <rect width="640" height="360" rx="28" fill="url(#overview-bg)"/>
  <rect width="640" height="360" rx="28" fill="url(#overview-glow)"/>

  <g opacity="0.85">
    <circle cx="90" cy="80" r="2" fill="#7aa2ff"/>
    <circle cx="130" cy="60" r="1.5" fill="#9cc0ff"/>
    <circle cx="210" cy="50" r="1.5" fill="#7aa2ff"/>
    <circle cx="520" cy="70" r="2" fill="#ffd59b"/>
    <circle cx="590" cy="110" r="1.5" fill="#ffd59b"/>
  </g>

  <g transform="translate(70 60)">
    <circle cx="160" cy="150" r="150" fill="none" stroke="#334155" stroke-width="2"/>
    <path d="M10 150 C80 70, 240 70, 310 150" fill="none" stroke="#2f3b5c" stroke-width="2"/>
    <path d="M40 170 C110 120, 210 120, 280 170" fill="none" stroke="#2f3b5c" stroke-width="2"/>
    <path d="M70 190 C130 160, 190 160, 250 190" fill="none" stroke="#2f3b5c" stroke-width="2"/>
    <circle cx="160" cy="150" r="6" fill="url(#overview-amber)"/>
    <circle cx="110" cy="120" r="4" fill="#5f7cff"/>
    <circle cx="200" cy="120" r="4" fill="#5f7cff"/>
    <circle cx="90" cy="190" r="4" fill="#5f7cff"/>
    <circle cx="230" cy="190" r="4" fill="#5f7cff"/>
  </g>

  <g transform="translate(360 70)">
    <rect x="0" y="0" width="220" height="200" rx="18" fill="#0f172a" stroke="#1f2a44"/>
    <rect x="20" y="24" width="120" height="14" rx="7" fill="#23304b"/>
    <rect x="20" y="52" width="160" height="10" rx="5" fill="#2a3754"/>
    <rect x="20" y="74" width="140" height="10" rx="5" fill="#2a3754"/>
    <rect x="20" y="96" width="110" height="10" rx="5" fill="#2a3754"/>
    <rect x="20" y="128" width="180" height="36" rx="10" fill="#111c33"/>
    <rect x="36" y="140" width="90" height="8" rx="4" fill="#2f3b5c"/>
    <rect x="36" y="154" width="60" height="8" rx="4" fill="#2f3b5c"/>
    <circle cx="175" cy="145" r="18" fill="url(#overview-amber)"/>
  </g>

  <g transform="translate(70 260)">
    <rect width="220" height="50" rx="14" fill="#111827" stroke="#1f2a44"/>
    <rect x="16" y="18" width="90" height="10" rx="5" fill="#2a3754"/>
    <rect x="120" y="16" width="70" height="14" rx="7" fill="url(#overview-amber)"/>
  </g>
</svg>
