<svg xmlns="http://www.w3.org/2000/svg" width="640" height="360" viewBox="0 0 640 360">
  <defs>
    <linearGradient id="users-bg" x1="0" y1="0" x2="1" y2="1">
      <stop offset="0%" stop-color="#0a0f1f"/>
      <stop offset="55%" stop-color="#111827"/>
      <stop offset="100%" stop-color="#0a1524"/>
    </linearGradient>
    <linearGradient id="users-bridge" x1="0" y1="0" x2="1" y2="0">
      <stop offset="0%" stop-color="#1b4dff"/>
      <stop offset="100%" stop-color="#00a870"/>
    </linearGradient>
  </defs>
  <rect width="640" height="360" rx="28" fill="url(#users-bg)"/>

  <g opacity="0.8">
    <circle cx="120" cy="110" r="32" fill="#1b4dff"/>
    <circle cx="200" cy="160" r="26" fill="#00a870"/>
    <circle cx="280" cy="110" r="28" fill="#4dd0e1"/>
    <circle cx="160" cy="220" r="24" fill="#6f7dff"/>
  </g>

  <g>
    <path d="M120 110 C150 120, 170 140, 200 160" fill="none" stroke="url(#users-bridge)" stroke-width="3"/>
    <path d="M200 160 C230 140, 250 120, 280 110" fill="none" stroke="url(#users-bridge)" stroke-width="3"/>
    <path d="M200 160 C190 190, 180 210, 160 220" fill="none" stroke="url(#users-bridge)" stroke-width="3"/>
  </g>

  <g transform="translate(340 70)">
    <rect x="0" y="0" width="240" height="210" rx="24" fill="#111827" stroke="#1f2a44"/>
    <rect x="24" y="24" width="130" height="12" rx="6" fill="#23304b"/>
    <rect x="24" y="50" width="170" height="10" rx="5" fill="#2a3754"/>
    <rect x="24" y="74" width="140" height="10" rx="5" fill="#2a3754"/>
    <rect x="24" y="120" width="190" height="50" rx="12" fill="#0d1a31"/>
    <circle cx="190" cy="145" r="18" fill="url(#users-bridge)"/>
  </g>

  <g transform="translate(80 270)">
    <rect x="0" y="0" width="220" height="40" rx="12" fill="#0f172a" stroke="#1f2a44"/>
    <rect x="16" y="14" width="90" height="10" rx="5" fill="#23304b"/>
    <rect x="120" y="12" width="70" height="14" rx="7" fill="#00a870"/>
  </g>
</svg>
